<svg width="37" height="37" viewBox="0 0 37 37" fill="none" xmlns="http://www.w3.org/2000/svg">
<path d="M24.9205 36.5933C31.3005 36.5933 36.4833 31.394 36.52 25.0488L36.5915 15.708L36.4833 15.1983L36.1772 14.5603L35.6583 14.157C34.9855 13.6308 31.5737 14.1937 30.6552 13.3595C30.0043 12.7655 29.9035 11.6912 29.7055 10.2318C29.3388 7.4085 29.1078 7.26183 28.6642 6.30483C27.06 2.90583 22.7003 0.353833 19.7083 0H11.5958C5.21583 0 0 5.20483 0 11.5628V25.0488C0 31.394 5.21583 36.5915 11.5958 36.5915H24.9205V36.5933ZM11.7443 9.4435H18.1738C19.4022 9.4435 20.3958 10.4408 20.3958 11.6527C20.3958 12.8572 19.4022 13.8637 18.1738 13.8637H11.7443C10.516 13.8637 9.526 12.8572 9.526 11.6527C9.526 10.4408 10.516 9.4435 11.7443 9.4435ZM9.526 24.8765C9.526 23.6665 10.516 22.6765 11.7443 22.6765H24.8105C26.0297 22.6765 27.0197 23.6665 27.0197 24.8765C27.0197 26.0718 26.0297 27.0765 24.8105 27.0765H11.7443C11.1592 27.0765 10.5977 26.8453 10.1822 26.4333C9.76668 26.0212 9.53084 25.4617 9.526 24.8765V24.8765Z" fill="white"/>
</svg>
