<svg width="63" height="56" viewBox="0 0 63 56" fill="none" xmlns="http://www.w3.org/2000/svg">
<path d="M31.1111 21.7778C26.0524 21.7778 21.7778 26.0524 21.7778 31.1111C21.7778 36.1698 26.0524 40.4444 31.1111 40.4444C36.1698 40.4444 40.4444 36.1698 40.4444 31.1111C40.4444 26.0524 36.1698 21.7778 31.1111 21.7778Z" fill="white"/>
<path d="M56 9.33334H47.9547L39.5329 0.911559C39.2445 0.622093 38.9016 0.392531 38.5242 0.236088C38.1467 0.0796449 37.742 -0.000589397 37.3333 3.25943e-06H24.8889C24.4803 -0.000589397 24.0756 0.0796449 23.6981 0.236088C23.3206 0.392531 22.9777 0.622093 22.6893 0.911559L14.2676 9.33334H6.22222C2.79067 9.33334 0 12.124 0 15.5556V49.7778C0 53.2093 2.79067 56 6.22222 56H56C59.4315 56 62.2222 53.2093 62.2222 49.7778V15.5556C62.2222 12.124 59.4315 9.33334 56 9.33334ZM31.1111 46.6667C22.68 46.6667 15.5556 39.5422 15.5556 31.1111C15.5556 22.68 22.68 15.5556 31.1111 15.5556C39.5422 15.5556 46.6667 22.68 46.6667 31.1111C46.6667 39.5422 39.5422 46.6667 31.1111 46.6667Z" fill="white"/>
</svg>
