<svg width="50" height="50" viewBox="0 0 50 50" fill="none" xmlns="http://www.w3.org/2000/svg">
<path d="M43.75 12.5C42.0247 12.5 40.5518 11.8896 39.3311 10.6689C38.1104 9.44824 37.5 7.97526 37.5 6.25C37.5 4.52474 38.1104 3.05176 39.3311 1.83105C40.5518 0.610352 42.0247 0 43.75 0C45.4753 0 46.9482 0.610352 48.1689 1.83105C49.3896 3.05176 50 4.52474 50 6.25C50 7.97526 49.3896 9.44824 48.1689 10.6689C46.9482 11.8896 45.4753 12.5 43.75 12.5ZM49.0234 44.3848L44.3848 49.0234C43.7663 49.6745 43.0013 50 42.0898 50C41.1784 50 40.3971 49.6745 39.7461 49.0234L16.6016 25.8789C15.9505 25.2279 15.625 24.4466 15.625 23.5352C15.625 22.6237 15.9505 21.8587 16.6016 21.2402L17.041 20.8008L9.7168 13.4766L1.07422 8.78906C0.358073 8.10547 0 7.25911 0 6.25C0 5.24089 0.358073 4.37826 1.07422 3.66211L3.66211 1.07422C4.37826 0.358073 5.24089 0 6.25 0C7.25911 0 8.10547 0.358073 8.78906 1.07422L13.4766 9.7168L20.8008 17.041L21.2402 16.6016C21.8587 15.9505 22.6237 15.625 23.5352 15.625C24.4466 15.625 25.2279 15.9505 25.8789 16.6016L49.0234 39.7461C49.6745 40.3971 50 41.1784 50 42.0898C50 43.0013 49.6745 43.7663 49.0234 44.3848Z" fill="white"/>
</svg>
