<svg width="23" height="26" viewBox="0 0 23 26" fill="none" xmlns="http://www.w3.org/2000/svg">
<path d="M2.08557 23.4009L0 0H22.9246L20.8362 23.3972L11.4484 26L2.08557 23.4009Z" fill="#1572B6"/>
<path d="M11.4623 24.011L19.0487 21.9078L20.8334 1.91379H11.4623V24.011Z" fill="#33A9DC"/>
<path d="M11.4623 10.3916H15.2601L15.522 7.45271H11.4623V4.5825H18.6587L18.59 5.35229L17.8852 13.2619H11.4623V10.3916V10.3916Z" fill="white"/>
<path d="M11.4799 17.8453L11.4669 17.849L8.27078 16.9854L8.06649 14.6965H5.18513L5.58721 19.2029L11.466 20.8353L11.4799 20.8316V17.8453V17.8453Z" fill="#EBEBEB"/>
<path d="M15.0159 13.1402L14.6705 16.9836L11.4697 17.8471V20.8334L17.3531 19.2029L17.3968 18.7181L17.8954 13.1402H15.0159V13.1402Z" fill="white"/>
<path d="M11.4725 4.5825V7.45271H4.53979L4.48222 6.80736L4.35129 5.35229L4.28258 4.5825H11.4725V4.5825Z" fill="#EBEBEB"/>
<path d="M11.4623 10.3916V13.2619H8.30608L8.2485 12.6165L8.1185 11.1614L8.04979 10.3916H11.4623V10.3916Z" fill="#EBEBEB"/>
</svg>
