<svg width="16" height="24" viewBox="0 0 16 24" fill="none" xmlns="http://www.w3.org/2000/svg">
<path d="M12 16C14.2091 16 16 14.2091 16 12C16 9.79086 14.2091 8 12 8C9.79086 8 8 9.79086 8 12C8 14.2091 9.79086 16 12 16Z" fill="#19BCFE"/>
<path fill-rule="evenodd" clip-rule="evenodd" d="M4 24C5.06087 24 6.07828 23.5786 6.82843 22.8284C7.57857 22.0783 8 21.0609 8 20V16H4C2.93913 16 1.92172 16.4214 1.17157 17.1716C0.421427 17.9217 0 18.9391 0 20C0 21.0609 0.421427 22.0783 1.17157 22.8284C1.92172 23.5786 2.93913 24 4 24V24Z" fill="#09CF83"/>
<path fill-rule="evenodd" clip-rule="evenodd" d="M4 16H8V8H4C2.93913 8 1.92172 8.42143 1.17157 9.17157C0.421427 9.92172 0 10.9391 0 12C0 13.0609 0.421427 14.0783 1.17157 14.8284C1.92172 15.5786 2.93913 16 4 16V16Z" fill="#A259FF"/>
<path fill-rule="evenodd" clip-rule="evenodd" d="M4 8H8V0H4C2.93913 0 1.92172 0.421427 1.17157 1.17157C0.421427 1.92172 0 2.93913 0 4C0 5.06087 0.421427 6.07828 1.17157 6.82843C1.92172 7.57857 2.93913 8 4 8V8Z" fill="#F24E1E"/>
<path fill-rule="evenodd" clip-rule="evenodd" d="M12 8H8V0H12C13.0609 0 14.0783 0.421427 14.8284 1.17157C15.5786 1.92172 16 2.93913 16 4C16 5.06087 15.5786 6.07828 14.8284 6.82843C14.0783 7.57857 13.0609 8 12 8Z" fill="#FF7262"/>
</svg>
