<svg width="25" height="29" viewBox="0 0 25 29" fill="none" xmlns="http://www.w3.org/2000/svg">
<path d="M2.27521 25.5174L0 0H25L22.7217 25.5134L12.4848 28.3516L2.27521 25.5174Z" fill="#E44F26"/>
<path d="M12.5 26.1827L20.7726 23.8892L22.7187 2.08688H12.5V26.1827Z" fill="#F1662A"/>
<path d="M12.5 11.5502H8.35865L8.07311 8.34548H12.5V5.21568H4.65269L4.72762 6.0561L5.49615 14.68H12.5V11.5502V11.5502Z" fill="#EBEBEB"/>
<path d="M12.5 19.678L12.4858 19.6821L9.0006 18.7414L8.77784 16.2454H5.63588L6.07432 21.1584L12.4858 22.9384L12.5 22.9344V19.678Z" fill="#EBEBEB"/>
<path d="M12.4889 11.5502V14.68H16.3426L15.9802 18.7394L12.4889 19.681V22.9374L18.9054 21.1584L18.952 20.6298L19.6871 12.3906L19.7641 11.5502H12.4889V11.5502Z" fill="white"/>
<path d="M12.4889 5.21568V8.34548H20.0486L20.1114 7.64277L20.2542 6.0561L20.3291 5.21568H12.4889V5.21568Z" fill="white"/>
</svg>
