<svg width="22" height="22" viewBox="0 0 22 22" fill="none" xmlns="http://www.w3.org/2000/svg">
<path d="M21.081 0H10.4869C10.4869 1.26835 10.9907 2.48476 11.8876 3.38162C12.7845 4.27848 14.0009 4.78233 15.2692 4.78233H17.2208V6.66659C17.2225 9.30539 19.3612 11.4442 22 11.4459V0.919036C22 0.41161 21.5887 0 21.081 0Z" fill="#2684FF"/>
<path d="M15.839 5.27864H5.24503C5.24667 7.91744 7.38537 10.0562 10.0243 10.058H11.9758V11.9482C11.9792 14.587 14.1193 16.7244 16.7581 16.7244V6.19785C16.7581 5.69025 16.3466 5.27873 15.839 5.27873V5.27864Z" fill="url(#paint0_linear)"/>
<path d="M10.5941 10.5543H0C0 13.1955 2.1412 15.3366 4.78233 15.3366H6.74V17.2208C6.74172 19.8572 8.87672 21.995 11.5132 22V11.4734C11.5132 10.9658 11.1017 10.5543 10.5941 10.5543Z" fill="url(#paint1_linear)"/>
<defs>
<linearGradient id="paint0_linear" x1="16.5315" y1="5.29707" x2="12.0523" y2="9.97088" gradientUnits="userSpaceOnUse">
<stop offset="0.18" stop-color="#0052CC"/>
<stop offset="1" stop-color="#2684FF"/>
</linearGradient>
<linearGradient id="paint1_linear" x1="11.5898" y1="10.6063" x2="6.40849" y2="15.704" gradientUnits="userSpaceOnUse">
<stop offset="0.18" stop-color="#0052CC"/>
<stop offset="1" stop-color="#2684FF"/>
</linearGradient>
</defs>
</svg>
