<svg width="24" height="24" viewBox="0 0 24 24" fill="none" xmlns="http://www.w3.org/2000/svg">
<path d="M2.88448 5.76896C4.47754 5.76896 5.76896 4.47754 5.76896 2.88448C5.76896 1.29143 4.47754 0 2.88448 0C1.29143 0 0 1.29143 0 2.88448C0 4.47754 1.29143 5.76896 2.88448 5.76896Z" fill="black"/>
<path d="M8.49261 7.95474V23.9578H13.4614V16.0439C13.4614 13.9557 13.8542 11.9334 16.4434 11.9334C18.997 11.9334 19.0286 14.3209 19.0286 16.1758V23.9591H24V15.1831C24 10.8722 23.0719 7.55924 18.0333 7.55924C15.6142 7.55924 13.9926 8.88679 13.3295 10.1431H13.2623V7.95474H8.49261V7.95474ZM0.3955 7.95474H5.37215V23.9578H0.3955V7.95474Z" fill="black"/>
</svg>
