<svg width="22" height="18" viewBox="0 0 22 18" fill="none" xmlns="http://www.w3.org/2000/svg">
<path d="M22 5.184V14.3438C22.0001 15.2777 21.6507 16.1762 21.0236 16.855C20.3964 17.5338 19.5391 17.9415 18.6274 17.9944L18.425 18H3.575C2.66185 18.0001 1.78329 17.6428 1.11955 17.0014C0.455803 16.36 0.0571985 15.4832 0.00550013 14.5508L0 14.3438V5.184L10.6172 10.872C10.7353 10.9353 10.8667 10.9683 11 10.9683C11.1333 10.9683 11.2647 10.9353 11.3828 10.872L22 5.184ZM3.575 2.65557e-08H18.425C19.3111 -0.000109142 20.1657 0.33637 20.823 0.944176C21.4804 1.55198 21.8935 2.38779 21.9824 3.2895L11 9.17325L0.0176 3.2895C0.102876 2.4236 0.487355 1.61721 1.10193 1.01527C1.7165 0.413335 2.52085 0.0553354 3.3704 0.00562516L3.575 2.65557e-08H18.425H3.575Z" fill="black"/>
</svg>
