<svg width="44" height="44" viewBox="0 0 44 44" fill="none" xmlns="http://www.w3.org/2000/svg">
<path d="M13.0293 24.5824H10.4641V42.539H13.0293C13.7348 42.539 14.3119 41.9618 14.3119 41.2564V25.8651C14.3119 25.1596 13.7348 24.5824 13.0293 24.5824Z" fill="white"/>
<path d="M30.9859 24.5824C30.2805 24.5824 29.7033 25.1596 29.7033 25.865V41.2564C29.7033 41.9618 30.2805 42.539 30.9859 42.539H33.5511V24.5824H30.9859Z" fill="white"/>
<path d="M42.5143 21.1876C42.3914 18.1951 41.6149 15.2658 40.2395 12.6053C38.864 9.94487 36.9229 7.6177 34.5524 5.7872C32.1819 3.95671 29.4395 2.66726 26.5176 2.00938C23.5958 1.3515 20.5654 1.34113 17.6391 1.979C14.7128 2.61687 11.9616 3.88752 9.57864 5.70175C7.19567 7.51598 5.23868 9.82981 3.84506 12.4808C2.45144 15.1318 1.65497 18.0557 1.51155 21.0473C1.36814 24.0388 1.88126 27.0255 3.0149 29.7977C2.32349 31.0967 1.96199 32.5458 1.9622 34.0174C1.96242 35.489 2.32435 36.9379 3.01614 38.2368C3.70793 39.5356 4.70837 40.6445 5.92942 41.4658C7.15046 42.2871 8.55468 42.7957 10.0185 42.9469L9.30089 25.1895C8.05812 25.4186 6.8782 25.909 5.83925 26.6284C5.25331 24.2295 5.20753 21.7304 5.70523 19.3116C6.20292 16.8928 7.23167 14.6148 8.71713 12.6421C10.2026 10.6694 12.1077 9.05129 14.2948 7.90464C16.4819 6.758 18.8963 6.11147 21.3638 6.01176C23.8312 5.91205 26.29 6.36165 28.5625 7.32808C30.835 8.29451 32.8644 9.75364 34.5042 11.6C36.144 13.4465 37.3532 15.6341 38.0444 18.0048C38.7357 20.3755 38.8917 22.8702 38.5012 25.3086C37.4068 24.6745 36.1903 24.2801 34.9321 24.1512L35.6498 41.9111C37.0966 41.6424 38.4552 41.0221 39.606 40.1049C40.7568 39.1877 41.6645 38.0017 42.2492 36.6513C42.834 35.3009 43.0778 33.8275 42.9593 32.3607C42.8408 30.8939 42.3635 29.4787 41.5695 28.2397C42.2758 26.0212 42.6136 23.6456 42.5143 21.1876Z" fill="white"/>
</svg>
