<svg width="24" height="24" viewBox="0 0 24 24" fill="none" xmlns="http://www.w3.org/2000/svg">
<path d="M23.1539 14.0048C23.2769 13.328 23.3429 12.6362 23.3429 11.9444C23.3429 10.4103 23.0429 8.92142 22.4518 7.52275C21.8817 6.16919 21.0626 4.954 20.0215 3.91026C18.9891 2.87261 17.7652 2.04614 16.418 1.47688C15.0199 0.884321 13.5377 0.583532 12.0075 0.583532C11.2874 0.583532 10.5643 0.652713 9.86224 0.788069C8.89076 0.271983 7.80829 0.00146242 6.70885 0C4.91763 0 3.23142 0.70084 1.96526 1.97017C1.34047 2.59331 0.845095 3.33443 0.507772 4.15068C0.17045 4.96694 -0.00212717 5.84213 1.97883e-05 6.72565C1.97883e-05 7.86866 0.294056 8.99361 0.843124 9.98621C0.73211 10.6299 0.672102 11.2886 0.672102 11.9444C0.672102 13.4784 0.97214 14.9673 1.56321 16.366C2.13328 17.7195 2.94938 18.9347 3.99051 19.9784C5.03164 21.0222 6.24379 21.8403 7.59396 22.4118C8.99213 23.0044 10.4743 23.3052 12.0045 23.3052C12.6706 23.3052 13.3367 23.245 13.9907 23.1277C14.9959 23.6962 16.13 24 17.2912 24C19.0824 24 20.7686 23.3022 22.0347 22.0298C23.3039 20.7605 24 19.0701 24 17.2743C24.003 16.1313 23.7089 15.0034 23.1539 14.0048ZM12.0525 18.9046C8.02601 18.9046 6.22579 16.9194 6.22579 15.4335C6.22579 14.6695 6.78686 14.1371 7.56095 14.1371C9.28316 14.1371 8.83911 16.6186 12.0525 16.6186C13.6997 16.6186 14.6088 15.7223 14.6088 14.8049C14.6088 14.2544 14.3388 13.6408 13.2527 13.3731L9.67021 12.4768C6.78686 11.7518 6.26179 10.1877 6.26179 8.71989C6.26179 5.66988 9.12714 4.52387 11.8185 4.52387C14.2968 4.52387 17.2191 5.89848 17.2191 7.72728C17.2191 8.51234 16.5411 8.96654 15.767 8.96654C14.2968 8.96654 14.5668 6.92718 11.6054 6.92718C10.1353 6.92718 9.32217 7.59494 9.32217 8.54844C9.32217 9.50194 10.4833 9.80574 11.4914 10.0373L14.1438 10.6269C17.0481 11.2766 17.7832 12.9761 17.7832 14.5763C17.7832 17.0518 15.884 18.9046 12.0525 18.9046V18.9046Z" fill="black"/>
</svg>
